<svg width="1257" height="134" viewBox="0 0 1257 134" fill="none" xmlns="http://www.w3.org/2000/svg">
<path d="M111.865 132.199V1.80108H193.678V18.9113H131.687V58.3548H189.353V75.285H131.687V115.089H194.399V132.199H111.865Z" fill="#FF612C"/>
<path d="M216.16 132.199V1.80108H297.073V18.9113H235.983V58.3548H291.306V75.285H235.983V132.199H216.16Z" fill="#FF612C"/>
<path d="M317.393 132.199V1.80108H337.215V115.089H396.143V132.199H317.393Z" fill="#FF612C"/>
<path d="M414.661 132.199V1.80108H496.474V18.9113H434.483V58.3548H492.149V75.285H434.483V115.089H497.195V132.199H414.661Z" fill="#FF612C"/>
<path d="M607.257 44.3065C604.014 27.5565 590.138 18.1909 573.559 18.1909C551.033 18.1909 534.274 35.4812 534.274 67C534.274 98.6989 551.213 115.809 573.559 115.809C589.958 115.809 603.833 106.624 607.257 90.0538L627.26 90.2339C623.116 115.989 602.031 134 573.379 134C539.32 134 514.632 108.605 514.632 67C514.632 25.2151 539.5 0 573.379 0C600.95 0 622.755 16.2097 627.26 44.3065H607.257Z" fill="#FF612C"/>
<path d="M634.605 18.9113V1.80108H712.635V18.9113H683.621V132.199H663.799V18.9113H634.605Z" fill="#FF612C"/>
<path d="M766.426 1.80108V132.199H746.603V1.80108H766.426Z" fill="#FF612C"/>
<path d="M906.089 67C906.089 108.605 881.04 134 847.342 134C813.283 134 788.415 108.605 788.415 67C788.415 25.2151 813.283 0 847.342 0C881.04 0 906.089 25.2151 906.089 67ZM886.447 67C886.447 35.3011 869.687 18.1909 847.342 18.1909C824.816 18.1909 808.057 35.3011 808.057 67C808.057 98.6989 824.816 115.809 847.342 115.809C869.687 115.809 886.447 98.6989 886.447 67Z" fill="#FF612C"/>
<path d="M1031.83 1.80108V132.199H1013.63L947.493 36.922H946.412V132.199H926.589V1.80108H944.97L1011.11 97.2581H1012.37V1.80108H1031.83Z" fill="#FF612C"/>
<path d="M1054.85 132.199V117.79L1100.08 72.2231C1114.32 57.2742 1121.53 48.9893 1121.53 37.6425C1121.53 24.8548 1111.08 16.5699 1097.38 16.5699C1082.96 16.5699 1073.59 25.7554 1073.59 39.6237H1054.85C1054.67 15.8495 1072.87 0 1097.74 0C1122.97 0 1140.27 15.8495 1140.45 37.1022C1140.27 51.6909 1133.42 63.2178 1108.91 87.3522L1082.42 114.188V115.269H1142.61V132.199H1054.85Z" fill="#FF612C"/>
<path d="M1156.99 106.804V90.7742L1214.65 1.80108H1239.16V90.0538H1257V106.804H1239.16V132.199H1220.42V106.804H1156.99ZM1177.89 90.0538H1220.42V25.3952H1218.98L1177.89 88.9731V90.0538Z" fill="#FF612C"/>
<path d="M726.42 114.909H786.968V132.199H726.42V114.909Z" fill="#FF612C"/>
<path d="M726.42 1.86052H786.968V19.1508H726.42V1.86052Z" fill="#FF612C"/>
<path d="M926.589 114.909H983.032V132.199H926.589V114.909Z" fill="#FF612C"/>
<path d="M977.266 1.86052L1031.83 1.80108V19.0914L977.266 19.1508V1.86052Z" fill="#FF612C"/>
<path d="M0 1.80108V132.199H19.8226V83.0296H27.5715L54.0617 132.199H76.5874L37.4828 65.9194C37.4828 65.9194 31.349 65.9194 24.3278 65.9194H19.8226V18.7312H44.5108C63.7928 18.7312 77.0947 23.0538 76.7343 42.6855C76.7343 48.4182 71.7886 56.8094 69.199 60.5161L80.7322 69.1613C86.1384 62.4393 91.7247 52.9386 91.7247 42.6855C91.7247 18.7312 76.7677 1.80108 46.4931 1.80108H0Z" fill="#FF612C"/>
<path d="M80.7322 69.1613L69.199 60.5161L65.9553 48.9893L51.8993 51.871L60.5491 86.4516L94.608 80.6882L91.7247 65.9194L80.7322 69.1613Z" fill="#FF612C"/>
</svg>
